<svg version="1.1" id="Layer_1" xmlns="http://www.w3.org/2000/svg" xmlns:xlink="http://www.w3.org/1999/xlink" x="0px" y="0px"
	 width="100%" viewBox="0 0 512 512" enable-background="new 0 0 512 512" xml:space="preserve">
<path fill="#000000" opacity="1.000000" stroke="none" 
	d="
M1.000000,186.000000 
	C1.000000,124.000000 1.000000,62.500000 1.000000,1.000000 
	C171.666672,1.000000 342.333344,1.000000 513.000000,1.000000 
	C513.000000,171.666672 513.000000,342.333344 513.000000,513.000000 
	C342.333344,513.000000 171.666672,513.000000 1.000000,513.000000 
	C1.000000,404.166656 1.000000,295.333344 1.000000,186.000000 
M106.973000,40.999207 
	C101.447845,41.660103 95.853218,41.968197 90.409065,43.040379 
	C59.946724,49.039669 39.249638,73.664185 37.243214,104.065010 
	C35.995918,122.963631 37.109318,142.018051 37.014954,161.929138 
	C37.009815,246.898270 36.986141,331.867432 37.061729,416.836487 
	C37.065037,420.553253 37.707340,424.329193 38.514774,427.975067 
	C41.741425,442.544617 48.885338,454.878784 60.198624,464.686340 
	C71.707649,474.663605 85.136230,480.827240 100.310356,480.865417 
	C203.105942,481.124023 305.902496,480.974884 408.698669,481.045898 
	C417.756348,481.052155 426.276917,479.320892 434.765747,476.138123 
	C459.754120,466.769135 476.859741,441.651154 476.924805,415.398590 
	C477.130829,332.262451 477.001984,249.125458 476.994263,165.988800 
	C476.994110,164.326706 476.891602,162.664597 476.972839,160.076294 
	C476.649323,139.506104 476.916931,118.903648 475.796906,98.376915 
	C475.035583,84.423637 468.116577,72.398636 458.680054,62.364746 
	C444.565582,47.356705 426.537354,41.044567 406.027954,40.059296 
	C406.018707,36.405792 406.005554,32.752296 406.000916,29.098789 
	C405.984772,16.381643 397.527405,7.844099 382.231628,5.108083 
	C373.798645,3.599644 360.939484,11.782300 358.509491,21.397785 
	C356.924927,27.667877 357.335571,34.442192 355.933685,40.999352 
	C289.672089,40.996815 223.410492,40.994278 157.029327,40.060680 
	C156.956924,34.925499 157.631973,29.643805 156.659943,24.684965 
	C154.488983,13.609653 144.351746,5.502643 133.267441,5.025509 
	C122.536095,4.563570 112.098373,11.717922 109.167450,22.863222 
	C107.652939,28.622364 108.224648,34.930126 106.973000,40.999207 
z"/>
<path fill="#D3D3D3" opacity="1.000000" stroke="none" 
	d="
M476.836853,161.002502 
	C476.891602,162.664597 476.994110,164.326706 476.994263,165.988800 
	C477.001984,249.125458 477.130829,332.262451 476.924805,415.398590 
	C476.859741,441.651154 459.754120,466.769135 434.765747,476.138123 
	C426.276917,479.320892 417.756348,481.052155 408.698669,481.045898 
	C305.902496,480.974884 203.105942,481.124023 100.310356,480.865417 
	C85.136230,480.827240 71.707649,474.663605 60.198624,464.686340 
	C48.885338,454.878784 41.741425,442.544617 38.514774,427.975067 
	C37.707340,424.329193 37.065037,420.553253 37.061729,416.836487 
	C36.986141,331.867432 37.009815,246.898270 37.546761,161.464233 
	C184.331314,161.000381 330.584076,161.001434 476.836853,161.002502 
M412.971619,337.839233 
	C412.981567,321.027679 413.015594,304.216095 412.988678,287.404602 
	C412.978912,281.307861 410.704224,279.042053 404.519958,279.023712 
	C388.707153,278.976715 372.894043,278.975494 357.081238,279.023560 
	C350.982361,279.042114 348.336823,281.335541 348.276184,287.336548 
	C348.113007,303.480591 348.110168,319.628632 348.283844,335.772491 
	C348.345490,341.504181 351.030853,343.891754 356.762268,343.916260 
	C372.741394,343.984680 388.720978,343.929260 404.700378,343.947876 
	C408.582794,343.952423 411.461914,342.489594 412.971619,337.839233 
M100.996262,241.499832 
	C100.996407,246.998367 100.974892,252.496994 101.002563,257.995392 
	C101.032593,263.960754 103.044189,266.567413 108.816132,266.642242 
	C125.141998,266.854034 141.473373,266.832611 157.800217,266.667786 
	C163.115234,266.614136 165.639389,264.185791 165.700027,258.955261 
	C165.891220,242.462112 165.881958,225.964355 165.716446,209.470734 
	C165.665085,204.350922 162.900742,202.025055 157.729462,202.012100 
	C141.567230,201.971634 125.404800,201.972610 109.242561,202.009277 
	C103.035606,202.023361 101.026878,204.121002 101.005608,210.508026 
	C100.972313,220.505234 100.996445,230.502609 100.996262,241.499832 
M413.001831,259.059296 
	C413.002167,242.756577 413.029144,226.453812 412.988892,210.151184 
	C412.974152,204.177383 410.841156,202.026627 404.911621,202.011307 
	C388.775360,201.969589 372.638916,201.977158 356.502625,202.008194 
	C351.237549,202.018326 348.353424,204.247192 348.298798,209.212830 
	C348.115784,225.845688 348.163086,242.482513 348.292694,259.116486 
	C348.329407,263.827362 351.087372,266.629791 355.835632,266.662415 
	C372.303192,266.775604 388.772827,266.799957 405.239716,266.647369 
	C409.390045,266.608887 412.712006,264.844055 413.001831,259.059296 
M136.500000,343.943726 
	C143.487045,343.941956 150.475250,344.018127 157.460739,343.913330 
	C162.893829,343.831818 165.630325,341.481720 165.695038,336.050110 
	C165.889282,319.749573 165.886002,303.444092 165.714172,287.143097 
	C165.653671,281.404175 162.971222,279.051849 157.228333,279.029755 
	C141.258179,278.968384 125.287521,278.971222 109.317345,279.027405 
	C103.211113,279.048859 101.020164,281.345978 101.008293,287.558838 
	C100.978088,303.362793 100.985573,319.166870 101.003883,334.970886 
	C101.011429,341.479309 103.416893,343.887207 110.047287,343.929810 
	C118.531204,343.984314 127.015732,343.943420 136.500000,343.943726 
M158.062973,355.997620 
	C141.735550,355.997437 125.408073,355.971130 109.080750,356.010803 
	C103.099030,356.025360 101.025467,358.117981 101.010551,364.148132 
	C100.971008,380.142242 100.979706,396.136536 101.005905,412.130707 
	C101.015472,417.970276 103.130569,420.199615 108.972305,420.714508 
	C109.469070,420.758270 109.971138,420.751892 110.470749,420.751984 
	C125.465309,420.754486 140.460129,420.806641 155.454315,420.733093 
	C162.678360,420.697662 165.640213,418.549713 165.711746,412.655457 
	C165.909836,396.330566 165.863846,380.001068 165.729187,363.674927 
	C165.694305,359.446350 163.807907,356.266296 158.062973,355.997620 
M271.635986,343.201172 
	C272.100739,343.379913 272.564819,343.713165 273.030334,343.715149 
	C290.491943,343.789551 307.955200,343.970520 325.414337,343.779877 
	C329.494904,343.735321 332.043457,341.148621 332.029419,336.594360 
	C331.978180,319.958862 332.050995,303.322968 331.988983,286.687561 
	C331.969360,281.418884 329.668884,279.071289 324.367767,279.043915 
	C308.065247,278.959717 291.761719,278.958771 275.459198,279.042999 
	C270.020966,279.071075 267.828705,281.241669 267.802673,286.612885 
	C267.722046,303.248108 267.665222,319.885651 267.913025,336.517578 
	C267.944794,338.647736 269.832489,340.750214 271.635986,343.201172 
M181.978348,322.498169 
	C181.979721,326.829559 181.948837,331.161255 181.990234,335.492279 
	C182.048294,341.566345 184.283920,343.886261 190.490784,343.914673 
	C206.316605,343.987000 222.143112,343.979431 237.969025,343.918152 
	C244.027908,343.894684 246.185287,341.795563 246.209671,335.865540 
	C246.276062,319.706512 246.269943,303.546875 246.216324,287.387756 
	C246.195358,281.067535 244.148376,279.045013 237.794296,279.025299 
	C221.968307,278.976166 206.141922,278.974731 190.315964,279.027100 
	C184.110092,279.047638 182.016617,281.220520 181.993759,287.514374 
	C181.952606,298.842438 181.979721,310.170715 181.978348,322.498169 
M182.832840,263.236694 
	C184.947525,264.380188 187.045792,266.478882 189.179535,266.515625 
	C205.822311,266.801880 222.472778,266.785278 239.118759,266.632874 
	C242.902969,266.598206 246.098373,264.772369 246.122681,260.372284 
	C246.219299,242.893036 246.227814,225.412491 246.108612,207.933517 
	C246.083374,204.232269 243.722717,202.058975 240.011429,202.042435 
	C222.863632,201.966049 205.715164,201.974213 188.567261,202.040344 
	C184.671951,202.055374 182.072495,204.173431 182.070602,208.125946 
	C182.061890,226.257324 182.259171,244.388794 182.832840,263.236694 
M282.535614,201.998322 
	C280.705414,201.998337 278.875183,201.995789 277.044983,201.998856 
	C269.233063,202.011948 267.775574,203.450531 267.765320,211.353867 
	C267.744995,226.993774 267.726593,242.633835 267.780579,258.273590 
	C267.801147,264.241852 269.925934,266.643768 275.766174,266.693665 
	C291.737640,266.830200 307.712067,266.843292 323.683075,266.681732 
	C329.856567,266.619293 332.001251,264.158722 332.011688,258.057861 
	C332.038727,242.251602 332.040070,226.445236 332.011139,210.638962 
	C331.998840,203.928864 330.099670,202.020706 323.455597,202.006912 
	C310.145081,201.979279 296.834442,201.998459 282.535614,201.998322 
M185.186340,419.549683 
	C187.294525,419.949951 189.400467,420.682983 191.511246,420.697174 
	C206.493912,420.797882 221.477921,420.811951 236.460800,420.727142 
	C244.276947,420.682922 246.223419,418.654816 246.234100,410.984741 
	C246.255905,395.335480 246.280579,379.686035 246.217911,364.036987 
	C246.192993,357.815735 244.320847,356.016724 238.142578,356.007202 
	C221.993896,355.982300 205.845032,355.967255 189.696472,356.017670 
	C184.192276,356.034851 182.031799,358.096313 182.009979,363.464478 
	C181.942978,379.945892 181.894836,396.428833 182.094925,412.908081 
	C182.119934,414.967102 183.679108,417.007477 185.186340,419.549683 
M272.265411,356.154907 
	C270.774078,358.318115 268.035950,360.454834 267.989410,362.648712 
	C267.629303,379.616608 267.791962,396.595520 267.787048,413.571045 
	C267.785889,417.537292 269.791016,419.881378 273.663879,420.319580 
	C276.789734,420.673309 279.960754,420.727264 283.112274,420.737030 
	C296.260101,420.777771 309.408630,420.821014 322.555847,420.722839 
	C329.907532,420.667938 332.013153,418.428528 332.018555,411.162537 
	C332.030090,395.684570 332.039154,380.206543 332.012451,364.728607 
	C332.000671,357.903229 330.176666,356.014130 323.566620,356.008026 
	C306.757416,355.992493 289.948120,356.023773 272.265411,356.154907 
z"/>
<path fill="#DB4B56" opacity="1.000000" stroke="none" 
	d="
M476.904846,160.539398 
	C330.584076,161.001434 184.331314,161.000381 37.620872,161.000931 
	C37.109318,142.018051 35.995918,122.963631 37.243214,104.065010 
	C39.249638,73.664185 59.946724,49.039669 90.409065,43.040379 
	C95.853218,41.968197 101.447845,41.660103 107.505219,41.455730 
	C107.976692,56.279068 107.915939,70.645882 107.530907,85.162064 
	C105.804550,89.737183 103.698723,94.074501 103.129517,98.604889 
	C101.260963,113.476936 116.002174,129.246887 132.545776,128.258987 
	C149.209946,127.263893 165.088211,109.009560 157.094574,89.548088 
	C157.080521,73.050934 157.114700,57.021336 157.148895,40.991741 
	C223.410492,40.994278 289.672089,40.996815 356.448761,41.460014 
	C356.926758,58.623997 356.889709,75.327324 356.522949,92.240990 
	C352.101532,108.563850 357.309601,119.004440 368.683136,126.115570 
	C384.520203,136.017502 406.085724,127.581139 410.646057,107.298080 
	C412.214447,100.322266 411.435944,92.963982 406.071991,86.608025 
	C406.060577,71.088455 406.103760,56.039703 406.146973,40.990948 
	C426.537354,41.044567 444.565582,47.356705 458.680054,62.364746 
	C468.116577,72.398636 475.035583,84.423637 475.796906,98.376915 
	C476.916931,118.903648 476.649323,139.506104 476.904846,160.539398 
z"/>
<path fill="#758389" opacity="1.000000" stroke="none" 
	d="
M157.089111,40.526211 
	C157.114700,57.021336 157.080521,73.050934 157.037354,89.999954 
	C157.790710,99.349449 155.052994,106.135277 148.668213,111.980461 
	C136.495972,123.123962 115.042084,118.245186 110.021492,102.439896 
	C108.279182,96.954903 108.520096,90.839928 107.855186,85.012695 
	C107.915939,70.645882 107.976692,56.279068 107.945602,41.451134 
	C108.224648,34.930126 107.652939,28.622364 109.167450,22.863222 
	C112.098373,11.717922 122.536095,4.563570 133.267441,5.025509 
	C144.351746,5.502643 154.488983,13.609653 156.659943,24.684965 
	C157.631973,29.643805 156.956924,34.925499 157.089111,40.526211 
z"/>
<path fill="#748389" opacity="1.000000" stroke="none" 
	d="
M356.852661,92.030647 
	C356.889709,75.327324 356.926758,58.623997 356.908142,41.455654 
	C357.335571,34.442192 356.924927,27.667877 358.509491,21.397785 
	C360.939484,11.782300 373.798645,3.599644 382.231628,5.108083 
	C397.527405,7.844099 405.984772,16.381643 406.000916,29.098789 
	C406.005554,32.752296 406.018707,36.405792 406.087463,40.525124 
	C406.103760,56.039703 406.060577,71.088455 406.020874,87.062889 
	C406.016113,90.308868 406.024567,92.629372 405.996918,94.949448 
	C405.820374,109.761162 389.310394,121.640160 375.206268,117.108994 
	C362.620087,113.065491 357.507965,106.080292 356.852661,92.030647 
z"/>
<path fill="#75848A" opacity="1.000000" stroke="none" 
	d="
M412.923676,338.268219 
	C411.461914,342.489594 408.582794,343.952423 404.700378,343.947876 
	C388.720978,343.929260 372.741394,343.984680 356.762268,343.916260 
	C351.030853,343.891754 348.345490,341.504181 348.283844,335.772491 
	C348.110168,319.628632 348.113007,303.480591 348.276184,287.336548 
	C348.336823,281.335541 350.982361,279.042114 357.081238,279.023560 
	C372.894043,278.975494 388.707153,278.976715 404.519958,279.023712 
	C410.704224,279.042053 412.978912,281.307861 412.988678,287.404602 
	C413.015594,304.216095 412.981567,321.027679 412.923676,338.268219 
z"/>
<path fill="#75848A" opacity="1.000000" stroke="none" 
	d="
M100.996262,240.999878 
	C100.996445,230.502609 100.972313,220.505234 101.005608,210.508026 
	C101.026878,204.121002 103.035606,202.023361 109.242561,202.009277 
	C125.404800,201.972610 141.567230,201.971634 157.729462,202.012100 
	C162.900742,202.025055 165.665085,204.350922 165.716446,209.470734 
	C165.881958,225.964355 165.891220,242.462112 165.700027,258.955261 
	C165.639389,264.185791 163.115234,266.614136 157.800217,266.667786 
	C141.473373,266.832611 125.141998,266.854034 108.816132,266.642242 
	C103.044189,266.567413 101.032593,263.960754 101.002563,257.995392 
	C100.974892,252.496994 100.996407,246.998367 100.996262,240.999878 
z"/>
<path fill="#75848A" opacity="1.000000" stroke="none" 
	d="
M412.997864,259.504517 
	C412.712006,264.844055 409.390045,266.608887 405.239716,266.647369 
	C388.772827,266.799957 372.303192,266.775604 355.835632,266.662415 
	C351.087372,266.629791 348.329407,263.827362 348.292694,259.116486 
	C348.163086,242.482513 348.115784,225.845688 348.298798,209.212830 
	C348.353424,204.247192 351.237549,202.018326 356.502625,202.008194 
	C372.638916,201.977158 388.775360,201.969589 404.911621,202.011307 
	C410.841156,202.026627 412.974152,204.177383 412.988892,210.151184 
	C413.029144,226.453812 413.002167,242.756577 412.997864,259.504517 
z"/>
<path fill="#75848A" opacity="1.000000" stroke="none" 
	d="
M136.000000,343.943665 
	C127.015732,343.943420 118.531204,343.984314 110.047287,343.929810 
	C103.416893,343.887207 101.011429,341.479309 101.003883,334.970886 
	C100.985573,319.166870 100.978088,303.362793 101.008293,287.558838 
	C101.020164,281.345978 103.211113,279.048859 109.317345,279.027405 
	C125.287521,278.971222 141.258179,278.968384 157.228333,279.029755 
	C162.971222,279.051849 165.653671,281.404175 165.714172,287.143097 
	C165.886002,303.444092 165.889282,319.749573 165.695038,336.050110 
	C165.630325,341.481720 162.893829,343.831818 157.460739,343.913330 
	C150.475250,344.018127 143.487045,343.941956 136.000000,343.943665 
z"/>
<path fill="#75848A" opacity="1.000000" stroke="none" 
	d="
M158.508911,356.000214 
	C163.807907,356.266296 165.694305,359.446350 165.729187,363.674927 
	C165.863846,380.001068 165.909836,396.330566 165.711746,412.655457 
	C165.640213,418.549713 162.678360,420.697662 155.454315,420.733093 
	C140.460129,420.806641 125.465309,420.754486 110.470749,420.751984 
	C109.971138,420.751892 109.469070,420.758270 108.972305,420.714508 
	C103.130569,420.199615 101.015472,417.970276 101.005905,412.130707 
	C100.979706,396.136536 100.971008,380.142242 101.010551,364.148132 
	C101.025467,358.117981 103.099030,356.025360 109.080750,356.010803 
	C125.408073,355.971130 141.735550,355.997437 158.508911,356.000214 
z"/>
<path fill="#748389" opacity="1.000000" stroke="none" 
	d="
M271.248199,343.033325 
	C269.832489,340.750214 267.944794,338.647736 267.913025,336.517578 
	C267.665222,319.885651 267.722046,303.248108 267.802673,286.612885 
	C267.828705,281.241669 270.020966,279.071075 275.459198,279.042999 
	C291.761719,278.958771 308.065247,278.959717 324.367767,279.043915 
	C329.668884,279.071289 331.969360,281.418884 331.988983,286.687561 
	C332.050995,303.322968 331.978180,319.958862 332.029419,336.594360 
	C332.043457,341.148621 329.494904,343.735321 325.414337,343.779877 
	C307.955200,343.970520 290.491943,343.789551 273.030334,343.715149 
	C272.564819,343.713165 272.100739,343.379913 271.248199,343.033325 
z"/>
<path fill="#748389" opacity="1.000000" stroke="none" 
	d="
M181.978333,321.998535 
	C181.979721,310.170715 181.952606,298.842438 181.993759,287.514374 
	C182.016617,281.220520 184.110092,279.047638 190.315964,279.027100 
	C206.141922,278.974731 221.968307,278.976166 237.794296,279.025299 
	C244.148376,279.045013 246.195358,281.067535 246.216324,287.387756 
	C246.269943,303.546875 246.276062,319.706512 246.209671,335.865540 
	C246.185287,341.795563 244.027908,343.894684 237.969025,343.918152 
	C222.143112,343.979431 206.316605,343.987000 190.490784,343.914673 
	C184.283920,343.886261 182.048294,341.566345 181.990234,335.492279 
	C181.948837,331.161255 181.979721,326.829559 181.978333,321.998535 
z"/>
<path fill="#758489" opacity="1.000000" stroke="none" 
	d="
M182.607681,262.878479 
	C182.259171,244.388794 182.061890,226.257324 182.070602,208.125946 
	C182.072495,204.173431 184.671951,202.055374 188.567261,202.040344 
	C205.715164,201.974213 222.863632,201.966049 240.011429,202.042435 
	C243.722717,202.058975 246.083374,204.232269 246.108612,207.933517 
	C246.227814,225.412491 246.219299,242.893036 246.122681,260.372284 
	C246.098373,264.772369 242.902969,266.598206 239.118759,266.632874 
	C222.472778,266.785278 205.822311,266.801880 189.179535,266.515625 
	C187.045792,266.478882 184.947525,264.380188 182.607681,262.878479 
z"/>
<path fill="#758489" opacity="1.000000" stroke="none" 
	d="
M283.029724,201.998322 
	C296.834442,201.998459 310.145081,201.979279 323.455597,202.006912 
	C330.099670,202.020706 331.998840,203.928864 332.011139,210.638962 
	C332.040070,226.445236 332.038727,242.251602 332.011688,258.057861 
	C332.001251,264.158722 329.856567,266.619293 323.683075,266.681732 
	C307.712067,266.843292 291.737640,266.830200 275.766174,266.693665 
	C269.925934,266.643768 267.801147,264.241852 267.780579,258.273590 
	C267.726593,242.633835 267.744995,226.993774 267.765320,211.353867 
	C267.775574,203.450531 269.233063,202.011948 277.044983,201.998856 
	C278.875183,201.995789 280.705414,201.998337 283.029724,201.998322 
z"/>
<path fill="#758489" opacity="1.000000" stroke="none" 
	d="
M184.856888,419.303101 
	C183.679108,417.007477 182.119934,414.967102 182.094925,412.908081 
	C181.894836,396.428833 181.942978,379.945892 182.009979,363.464478 
	C182.031799,358.096313 184.192276,356.034851 189.696472,356.017670 
	C205.845032,355.967255 221.993896,355.982300 238.142578,356.007202 
	C244.320847,356.016724 246.192993,357.815735 246.217911,364.036987 
	C246.280579,379.686035 246.255905,395.335480 246.234100,410.984741 
	C246.223419,418.654816 244.276947,420.682922 236.460800,420.727142 
	C221.477921,420.811951 206.493912,420.797882 191.511246,420.697174 
	C189.400467,420.682983 187.294525,419.949951 184.856888,419.303101 
z"/>
<path fill="#758489" opacity="1.000000" stroke="none" 
	d="
M272.702148,356.095612 
	C289.948120,356.023773 306.757416,355.992493 323.566620,356.008026 
	C330.176666,356.014130 332.000671,357.903229 332.012451,364.728607 
	C332.039154,380.206543 332.030090,395.684570 332.018555,411.162537 
	C332.013153,418.428528 329.907532,420.667938 322.555847,420.722839 
	C309.408630,420.821014 296.260101,420.777771 283.112274,420.737030 
	C279.960754,420.727264 276.789734,420.673309 273.663879,420.319580 
	C269.791016,419.881378 267.785889,417.537292 267.787048,413.571045 
	C267.791962,396.595520 267.629303,379.616608 267.989410,362.648712 
	C268.035950,360.454834 270.774078,358.318115 272.702148,356.095612 
z"/>
<path fill="#000000" opacity="1.000000" stroke="none" 
	d="
M356.522980,92.240990 
	C357.507965,106.080292 362.620087,113.065491 375.206268,117.108994 
	C389.310394,121.640160 405.820374,109.761162 405.996918,94.949448 
	C406.024567,92.629372 406.016113,90.308868 406.075500,87.533699 
	C411.435944,92.963982 412.214447,100.322266 410.646057,107.298080 
	C406.085724,127.581139 384.520203,136.017502 368.683136,126.115570 
	C357.309601,119.004440 352.101532,108.563850 356.522980,92.240990 
z"/>
<path fill="#000000" opacity="1.000000" stroke="none" 
	d="
M107.530907,85.162064 
	C108.520096,90.839928 108.279182,96.954903 110.021492,102.439896 
	C115.042084,118.245186 136.495972,123.123962 148.668213,111.980461 
	C155.052994,106.135277 157.790710,99.349449 157.085602,90.467514 
	C165.088211,109.009560 149.209946,127.263893 132.545776,128.258987 
	C116.002174,129.246887 101.260963,113.476936 103.129517,98.604889 
	C103.698723,94.074501 105.804550,89.737183 107.530907,85.162064 
z"/>
</svg>